<?xml version="1.0" encoding="UTF-8" standalone="no"?>
<svg
   width="933"
   height="1169"
   viewBox="0 0 933 1169"
   version="1.1"
   id="svg11"
   sodipodi:docname="logo.svg"
   inkscape:export-filename="logo.svg"
   inkscape:export-xdpi="96"
   inkscape:export-ydpi="96"
   inkscape:version="1.2.2 (732a01da63, 2022-12-09)"
   xmlns:inkscape="http://www.inkscape.org/namespaces/inkscape"
   xmlns:sodipodi="http://sodipodi.sourceforge.net/DTD/sodipodi-0.dtd"
   xmlns="http://www.w3.org/2000/svg"
   xmlns:svg="http://www.w3.org/2000/svg">
  <sodipodi:namedview
     id="namedview13"
     pagecolor="#ffffff"
     bordercolor="#000000"
     borderopacity="0.25"
     inkscape:showpageshadow="2"
     inkscape:pageopacity="0.0"
     inkscape:pagecheckerboard="0"
     inkscape:deskcolor="#d1d1d1"
     showgrid="false"
     inkscape:zoom="0.71599658"
     inkscape:cx="466.48268"
     inkscape:cy="696.9307"
     inkscape:window-width="1920"
     inkscape:window-height="1017"
     inkscape:window-x="-8"
     inkscape:window-y="-8"
     inkscape:window-maximized="1"
     inkscape:current-layer="svg11" />
  <defs
     id="defs5">
    <clipPath
       id="clip-logo">
      <rect
         width="933"
         height="1169"
         id="rect2" />
    </clipPath>
  </defs>
  <g
     id="logo"
     clip-path="url(#clip-logo)"
     transform="matrix(1.5512863,0,0,1.4648326,-253.68314,-275.88464)">
    <g
       id="Group_2"
       data-name="Group 2"
       transform="translate(-344.713,-89.08)">
      <path
         d="M 404.728,-398.964 H 495.7 v -90.974 h 90.974 V -580.91 H 495.7 v -90.974 h -90.972 v 90.974 h -90.974 v 90.972 h 90.974 z M 450.234,-141.3 Q 320.334,-173.49 235.166,-289.883 149.998,-406.276 150,-549.98 v -229.393 l 300.214,-113.087 300.213,113.087 v 229 q 0,144.2 -85.146,260.545 -85.146,116.345 -215.047,148.528 z m -0.02,-81.175 q 96.432,-31.841 159.2,-123.27 62.768,-91.429 62.776,-203.982 v -175.81 l -221.976,-83.368 -221.976,83.368 v 175.81 q 0,112.555 62.772,203.983 62.772,91.428 159.204,123.27 z m 0,-293.494 z"
         transform="translate(360.999,1190.46)"
         fill="#f8f8f8"
         id="path7" />
    </g>
  </g>
</svg>
